<mxfile host="app.diagrams.net" agent="Mozilla/5.0 (Windows NT 10.0; Win64; x64) AppleWebKit/537.36 (KHTML, like Gecko) Chrome/138.0.0.0 Safari/537.36 Edg/138.0.0.0" version="27.2.0">
  <diagram name="Page-1" id="eCOo2D14gB1cj0V3eNS2">
    <mxGraphModel dx="1158" dy="773" grid="1" gridSize="10" guides="1" tooltips="1" connect="1" arrows="1" fold="1" page="1" pageScale="1" pageWidth="3300" pageHeight="4681" math="0" shadow="0">
      <root>
        <mxCell id="0" />
        <mxCell id="1" parent="0" />
        <mxCell id="KEu1qA3JAobn0XT2DKJx-28" value="" style="rounded=1;whiteSpace=wrap;html=1;" parent="1" vertex="1">
          <mxGeometry x="80" y="450" width="130" height="50" as="geometry" />
        </mxCell>
        <mxCell id="KEu1qA3JAobn0XT2DKJx-5" value="" style="group" parent="1" vertex="1" connectable="0">
          <mxGeometry x="100" y="710" width="260" height="50" as="geometry" />
        </mxCell>
        <mxCell id="KEu1qA3JAobn0XT2DKJx-1" value="" style="rounded=1;whiteSpace=wrap;html=1;" parent="KEu1qA3JAobn0XT2DKJx-5" vertex="1">
          <mxGeometry width="260" height="50" as="geometry" />
        </mxCell>
        <mxCell id="KEu1qA3JAobn0XT2DKJx-3" value="Controller" style="text;html=1;align=center;verticalAlign=middle;whiteSpace=wrap;rounded=0;fontSize=26;" parent="KEu1qA3JAobn0XT2DKJx-5" vertex="1">
          <mxGeometry width="250" height="50" as="geometry" />
        </mxCell>
        <mxCell id="KEu1qA3JAobn0XT2DKJx-10" value="" style="group" parent="1" vertex="1" connectable="0">
          <mxGeometry x="80" y="600" width="300" height="50" as="geometry" />
        </mxCell>
        <mxCell id="KEu1qA3JAobn0XT2DKJx-11" value="" style="rounded=1;whiteSpace=wrap;html=1;" parent="KEu1qA3JAobn0XT2DKJx-10" vertex="1">
          <mxGeometry width="300" height="50" as="geometry" />
        </mxCell>
        <mxCell id="KEu1qA3JAobn0XT2DKJx-12" value="Controller Hardware" style="text;html=1;align=center;verticalAlign=middle;whiteSpace=wrap;rounded=0;fontSize=26;" parent="KEu1qA3JAobn0XT2DKJx-10" vertex="1">
          <mxGeometry width="288.46153846153845" height="50" as="geometry" />
        </mxCell>
        <mxCell id="KEu1qA3JAobn0XT2DKJx-15" value="" style="group" parent="1" vertex="1" connectable="0">
          <mxGeometry x="80" y="550" width="300" height="50" as="geometry" />
        </mxCell>
        <mxCell id="KEu1qA3JAobn0XT2DKJx-16" value="" style="rounded=1;whiteSpace=wrap;html=1;" parent="KEu1qA3JAobn0XT2DKJx-15" vertex="1">
          <mxGeometry width="300" height="50" as="geometry" />
        </mxCell>
        <mxCell id="KEu1qA3JAobn0XT2DKJx-17" value="RT Linux" style="text;html=1;align=center;verticalAlign=middle;whiteSpace=wrap;rounded=0;fontSize=26;" parent="KEu1qA3JAobn0XT2DKJx-15" vertex="1">
          <mxGeometry width="250" height="50" as="geometry" />
        </mxCell>
        <mxCell id="KEu1qA3JAobn0XT2DKJx-18" value="" style="group" parent="1" vertex="1" connectable="0">
          <mxGeometry x="80" y="500" width="300" height="50" as="geometry" />
        </mxCell>
        <mxCell id="KEu1qA3JAobn0XT2DKJx-19" value="" style="rounded=1;whiteSpace=wrap;html=1;" parent="KEu1qA3JAobn0XT2DKJx-18" vertex="1">
          <mxGeometry width="300" height="50" as="geometry" />
        </mxCell>
        <mxCell id="KEu1qA3JAobn0XT2DKJx-20" value="CODESYS Runtime" style="text;html=1;align=center;verticalAlign=middle;whiteSpace=wrap;rounded=0;fontSize=26;" parent="KEu1qA3JAobn0XT2DKJx-18" vertex="1">
          <mxGeometry width="250" height="50" as="geometry" />
        </mxCell>
        <mxCell id="KEu1qA3JAobn0XT2DKJx-23" value="P" style="group" parent="1" vertex="1" connectable="0">
          <mxGeometry x="80" y="450" width="300" height="50" as="geometry" />
        </mxCell>
        <mxCell id="KEu1qA3JAobn0XT2DKJx-24" value="" style="rounded=1;whiteSpace=wrap;html=1;" parent="KEu1qA3JAobn0XT2DKJx-23" vertex="1">
          <mxGeometry width="300" height="50" as="geometry" />
        </mxCell>
        <mxCell id="KEu1qA3JAobn0XT2DKJx-26" value="PLC App 2" style="text;html=1;align=center;verticalAlign=middle;whiteSpace=wrap;rounded=0;fontSize=26;" parent="KEu1qA3JAobn0XT2DKJx-23" vertex="1">
          <mxGeometry x="150" width="130" height="50" as="geometry" />
        </mxCell>
        <mxCell id="KEu1qA3JAobn0XT2DKJx-25" value="PLC App 1" style="text;html=1;align=center;verticalAlign=middle;whiteSpace=wrap;rounded=0;fontSize=26;" parent="KEu1qA3JAobn0XT2DKJx-23" vertex="1">
          <mxGeometry width="130" height="50" as="geometry" />
        </mxCell>
        <mxCell id="KEu1qA3JAobn0XT2DKJx-29" value="" style="rounded=0;whiteSpace=wrap;html=1;" parent="KEu1qA3JAobn0XT2DKJx-23" vertex="1">
          <mxGeometry x="130" width="10" height="50" as="geometry" />
        </mxCell>
        <mxCell id="KEu1qA3JAobn0XT2DKJx-34" value="" style="group" parent="1" vertex="1" connectable="0">
          <mxGeometry x="520" y="590" width="700" height="50" as="geometry" />
        </mxCell>
        <mxCell id="KEu1qA3JAobn0XT2DKJx-35" value="" style="rounded=1;whiteSpace=wrap;html=1;" parent="KEu1qA3JAobn0XT2DKJx-34" vertex="1">
          <mxGeometry width="700" height="50" as="geometry" />
        </mxCell>
        <mxCell id="KEu1qA3JAobn0XT2DKJx-36" value="General Hardware (IPC)" style="text;html=1;align=center;verticalAlign=middle;whiteSpace=wrap;rounded=0;fontSize=26;" parent="KEu1qA3JAobn0XT2DKJx-34" vertex="1">
          <mxGeometry x="149.18032786885246" width="285.8639344262295" height="50" as="geometry" />
        </mxCell>
        <mxCell id="KEu1qA3JAobn0XT2DKJx-37" value="" style="group" parent="1" vertex="1" connectable="0">
          <mxGeometry x="520" y="540" width="700" height="50" as="geometry" />
        </mxCell>
        <mxCell id="KEu1qA3JAobn0XT2DKJx-38" value="" style="rounded=1;whiteSpace=wrap;html=1;" parent="KEu1qA3JAobn0XT2DKJx-37" vertex="1">
          <mxGeometry width="700" height="50" as="geometry" />
        </mxCell>
        <mxCell id="KEu1qA3JAobn0XT2DKJx-39" value="Debian, Yocto, Red Hat Linux" style="text;html=1;align=center;verticalAlign=middle;whiteSpace=wrap;rounded=0;fontSize=26;" parent="KEu1qA3JAobn0XT2DKJx-37" vertex="1">
          <mxGeometry width="583.3333333333334" height="50" as="geometry" />
        </mxCell>
        <mxCell id="KEu1qA3JAobn0XT2DKJx-52" value="" style="group" parent="1" vertex="1" connectable="0">
          <mxGeometry x="510" y="350" width="710" height="190" as="geometry" />
        </mxCell>
        <mxCell id="KEu1qA3JAobn0XT2DKJx-77" value="" style="group" parent="KEu1qA3JAobn0XT2DKJx-52" vertex="1" connectable="0">
          <mxGeometry x="10.683994528043776" y="140" width="699.3160054719563" height="50" as="geometry" />
        </mxCell>
        <mxCell id="KEu1qA3JAobn0XT2DKJx-78" value="" style="rounded=1;whiteSpace=wrap;html=1;" parent="KEu1qA3JAobn0XT2DKJx-77" vertex="1">
          <mxGeometry width="699.3160054719563" height="50" as="geometry" />
        </mxCell>
        <mxCell id="KEu1qA3JAobn0XT2DKJx-79" value="Docker Runtime" style="text;html=1;align=center;verticalAlign=middle;whiteSpace=wrap;rounded=0;fontSize=26;" parent="KEu1qA3JAobn0XT2DKJx-77" vertex="1">
          <mxGeometry width="582.7633378932968" height="50" as="geometry" />
        </mxCell>
        <mxCell id="KEu1qA3JAobn0XT2DKJx-80" value="" style="group" parent="1" vertex="1" connectable="0">
          <mxGeometry x="760" y="710" width="260" height="50" as="geometry" />
        </mxCell>
        <mxCell id="KEu1qA3JAobn0XT2DKJx-81" value="" style="rounded=1;whiteSpace=wrap;html=1;" parent="KEu1qA3JAobn0XT2DKJx-80" vertex="1">
          <mxGeometry width="260" height="50" as="geometry" />
        </mxCell>
        <mxCell id="KEu1qA3JAobn0XT2DKJx-82" value="Virtual Safe Control" style="text;html=1;align=center;verticalAlign=middle;whiteSpace=wrap;rounded=0;fontSize=26;" parent="KEu1qA3JAobn0XT2DKJx-80" vertex="1">
          <mxGeometry width="250" height="50" as="geometry" />
        </mxCell>
        <mxCell id="KEu1qA3JAobn0XT2DKJx-83" value="" style="shape=internalStorage;whiteSpace=wrap;html=1;backgroundOutline=1;" parent="1" vertex="1">
          <mxGeometry x="200" y="110" width="240" height="150" as="geometry" />
        </mxCell>
        <mxCell id="KEu1qA3JAobn0XT2DKJx-84" value="PLC Designer" style="text;html=1;align=center;verticalAlign=middle;whiteSpace=wrap;rounded=0;fontSize=26;" parent="1" vertex="1">
          <mxGeometry x="195" y="150" width="250" height="50" as="geometry" />
        </mxCell>
        <mxCell id="KEu1qA3JAobn0XT2DKJx-85" value="" style="curved=1;endArrow=classic;html=1;rounded=0;exitX=0.25;exitY=1;exitDx=0;exitDy=0;entryX=0.25;entryY=0;entryDx=0;entryDy=0;" parent="1" source="KEu1qA3JAobn0XT2DKJx-83" target="KEu1qA3JAobn0XT2DKJx-26" edge="1">
          <mxGeometry width="50" height="50" relative="1" as="geometry">
            <mxPoint x="200" y="380" as="sourcePoint" />
            <mxPoint x="250" y="330" as="targetPoint" />
            <Array as="points">
              <mxPoint x="250" y="380" />
              <mxPoint x="200" y="330" />
            </Array>
          </mxGeometry>
        </mxCell>
        <mxCell id="KEu1qA3JAobn0XT2DKJx-91" value="" style="group" parent="1" vertex="1" connectable="0">
          <mxGeometry x="520" y="230" width="340" height="258" as="geometry" />
        </mxCell>
        <mxCell id="KEu1qA3JAobn0XT2DKJx-90" value="" style="group" parent="KEu1qA3JAobn0XT2DKJx-91" vertex="1" connectable="0">
          <mxGeometry width="340" height="258" as="geometry" />
        </mxCell>
        <mxCell id="KEu1qA3JAobn0XT2DKJx-66" value="" style="rounded=1;whiteSpace=wrap;html=1;" parent="KEu1qA3JAobn0XT2DKJx-90" vertex="1">
          <mxGeometry width="330.2857142857143" height="258" as="geometry" />
        </mxCell>
        <mxCell id="KEu1qA3JAobn0XT2DKJx-68" value="" style="group" parent="KEu1qA3JAobn0XT2DKJx-90" vertex="1" connectable="0">
          <mxGeometry x="19.428571428571427" y="127.91596638655462" width="291.4285714285714" height="54.20168067226891" as="geometry" />
        </mxCell>
        <mxCell id="KEu1qA3JAobn0XT2DKJx-69" value="" style="rounded=1;whiteSpace=wrap;html=1;" parent="KEu1qA3JAobn0XT2DKJx-68" vertex="1">
          <mxGeometry y="-54.20168067226891" width="291.4285714285714" height="108.40336134453781" as="geometry" />
        </mxCell>
        <mxCell id="KEu1qA3JAobn0XT2DKJx-74" value="" style="group" parent="KEu1qA3JAobn0XT2DKJx-90" vertex="1" connectable="0">
          <mxGeometry x="19.428571428571427" y="182.1176470588235" width="320.57142857142856" height="54.20168067226891" as="geometry" />
        </mxCell>
        <mxCell id="KEu1qA3JAobn0XT2DKJx-75" value="" style="rounded=1;whiteSpace=wrap;html=1;" parent="KEu1qA3JAobn0XT2DKJx-74" vertex="1">
          <mxGeometry width="287.4088669950739" height="54.20168067226891" as="geometry" />
        </mxCell>
        <mxCell id="KEu1qA3JAobn0XT2DKJx-76" value="Docker Instance" style="text;html=1;align=center;verticalAlign=middle;whiteSpace=wrap;rounded=0;fontSize=26;" parent="KEu1qA3JAobn0XT2DKJx-74" vertex="1">
          <mxGeometry x="-22.10904433497537" width="331.6256157635468" height="54.20168067226891" as="geometry" />
        </mxCell>
        <mxCell id="KEu1qA3JAobn0XT2DKJx-72" value="" style="rounded=1;whiteSpace=wrap;html=1;" parent="KEu1qA3JAobn0XT2DKJx-90" vertex="1">
          <mxGeometry x="19.428571428571427" y="14.84033613445378" width="291.4285714285714" height="54.20168067226891" as="geometry" />
        </mxCell>
        <mxCell id="KEu1qA3JAobn0XT2DKJx-71" value="P" style="group" parent="KEu1qA3JAobn0XT2DKJx-90" vertex="1" connectable="0">
          <mxGeometry x="24.285714285714285" y="16.84033613445378" width="291.4285714285714" height="54.20168067226891" as="geometry" />
        </mxCell>
        <mxCell id="KEu1qA3JAobn0XT2DKJx-73" value="PLC App 1" style="text;html=1;align=center;verticalAlign=middle;whiteSpace=wrap;rounded=0;fontSize=26;" parent="KEu1qA3JAobn0XT2DKJx-71" vertex="1">
          <mxGeometry x="77.71" width="142.29" height="54.2" as="geometry" />
        </mxCell>
        <mxCell id="KEu1qA3JAobn0XT2DKJx-70" value="Modified Virtual PLC CODESYS Runtime (SL3 Certified)" style="text;html=1;align=center;verticalAlign=middle;whiteSpace=wrap;rounded=0;fontSize=26;" parent="KEu1qA3JAobn0XT2DKJx-91" vertex="1">
          <mxGeometry x="43.71857142857141" y="73.71428571428567" width="242.85714285714283" height="108.40336134453781" as="geometry" />
        </mxCell>
        <mxCell id="KEu1qA3JAobn0XT2DKJx-92" value="" style="group" parent="1" vertex="1" connectable="0">
          <mxGeometry x="870" y="230" width="340" height="258" as="geometry" />
        </mxCell>
        <mxCell id="KEu1qA3JAobn0XT2DKJx-93" value="" style="group" parent="KEu1qA3JAobn0XT2DKJx-92" vertex="1" connectable="0">
          <mxGeometry width="340" height="258" as="geometry" />
        </mxCell>
        <mxCell id="KEu1qA3JAobn0XT2DKJx-94" value="" style="rounded=1;whiteSpace=wrap;html=1;" parent="KEu1qA3JAobn0XT2DKJx-93" vertex="1">
          <mxGeometry width="330.2857142857143" height="258" as="geometry" />
        </mxCell>
        <mxCell id="KEu1qA3JAobn0XT2DKJx-95" value="" style="group" parent="KEu1qA3JAobn0XT2DKJx-93" vertex="1" connectable="0">
          <mxGeometry x="19.428571428571427" y="127.91596638655462" width="291.4285714285714" height="54.20168067226891" as="geometry" />
        </mxCell>
        <mxCell id="KEu1qA3JAobn0XT2DKJx-96" value="" style="rounded=1;whiteSpace=wrap;html=1;" parent="KEu1qA3JAobn0XT2DKJx-95" vertex="1">
          <mxGeometry y="-54.20168067226891" width="291.4285714285714" height="108.40336134453781" as="geometry" />
        </mxCell>
        <mxCell id="KEu1qA3JAobn0XT2DKJx-97" value="" style="group" parent="KEu1qA3JAobn0XT2DKJx-93" vertex="1" connectable="0">
          <mxGeometry x="19.428571428571427" y="182.1176470588235" width="320.57142857142856" height="54.20168067226891" as="geometry" />
        </mxCell>
        <mxCell id="KEu1qA3JAobn0XT2DKJx-98" value="" style="rounded=1;whiteSpace=wrap;html=1;" parent="KEu1qA3JAobn0XT2DKJx-97" vertex="1">
          <mxGeometry width="287.4088669950739" height="54.20168067226891" as="geometry" />
        </mxCell>
        <mxCell id="KEu1qA3JAobn0XT2DKJx-99" value="Docker Instance" style="text;html=1;align=center;verticalAlign=middle;whiteSpace=wrap;rounded=0;fontSize=26;" parent="KEu1qA3JAobn0XT2DKJx-97" vertex="1">
          <mxGeometry x="-22.10904433497537" width="331.6256157635468" height="54.20168067226891" as="geometry" />
        </mxCell>
        <mxCell id="KEu1qA3JAobn0XT2DKJx-100" value="" style="rounded=1;whiteSpace=wrap;html=1;" parent="KEu1qA3JAobn0XT2DKJx-93" vertex="1">
          <mxGeometry x="19.428571428571427" y="14.84033613445378" width="291.4285714285714" height="54.20168067226891" as="geometry" />
        </mxCell>
        <mxCell id="KEu1qA3JAobn0XT2DKJx-101" value="P" style="group" parent="KEu1qA3JAobn0XT2DKJx-93" vertex="1" connectable="0">
          <mxGeometry x="24.285714285714285" y="16.84033613445378" width="291.4285714285714" height="54.20168067226891" as="geometry" />
        </mxCell>
        <mxCell id="KEu1qA3JAobn0XT2DKJx-102" value="PLC App&amp;nbsp; 2" style="text;html=1;align=center;verticalAlign=middle;whiteSpace=wrap;rounded=0;fontSize=26;" parent="KEu1qA3JAobn0XT2DKJx-101" vertex="1">
          <mxGeometry x="77.71" width="142.29" height="54.2" as="geometry" />
        </mxCell>
        <mxCell id="KEu1qA3JAobn0XT2DKJx-103" value="Modified Virtual PLC CODESYS Runtime (SL3 Certified)" style="text;html=1;align=center;verticalAlign=middle;whiteSpace=wrap;rounded=0;fontSize=26;" parent="KEu1qA3JAobn0XT2DKJx-92" vertex="1">
          <mxGeometry x="43.71857142857141" y="73.71428571428567" width="242.85714285714283" height="108.40336134453781" as="geometry" />
        </mxCell>
        <mxCell id="KEu1qA3JAobn0XT2DKJx-86" value="" style="curved=1;endArrow=classic;html=1;rounded=0;exitX=1;exitY=0.75;exitDx=0;exitDy=0;" parent="1" target="KEu1qA3JAobn0XT2DKJx-72" edge="1">
          <mxGeometry width="50" height="50" relative="1" as="geometry">
            <mxPoint x="440" y="137.5" as="sourcePoint" />
            <mxPoint x="635" y="50" as="targetPoint" />
            <Array as="points">
              <mxPoint x="610" y="180" />
            </Array>
          </mxGeometry>
        </mxCell>
        <mxCell id="KEu1qA3JAobn0XT2DKJx-105" value="&lt;h1 style=&quot;margin-top: 0px;&quot;&gt;Topics to Explore:&lt;/h1&gt;&lt;div&gt;&lt;font size=&quot;3&quot;&gt;1. Can Virtual PLC be installed on&amp;nbsp;&lt;/font&gt;&lt;span style=&quot;font-size: medium;&quot;&gt;controller hardware &amp;amp; RT Linux&amp;nbsp;instead of&lt;/span&gt;&lt;font size=&quot;3&quot;&gt;&amp;nbsp;generic hardware?&lt;/font&gt;&lt;/div&gt;&lt;div&gt;&lt;font size=&quot;3&quot;&gt;&lt;br&gt;&lt;/font&gt;&lt;/div&gt;&lt;div&gt;&lt;font size=&quot;3&quot;&gt;2. Can controller hardware &amp;amp; RT Linux support docker or can such support be added?&lt;/font&gt;&lt;/div&gt;&lt;div&gt;&lt;font size=&quot;3&quot;&gt;&lt;br&gt;&lt;/font&gt;&lt;/div&gt;&lt;div&gt;&lt;font size=&quot;3&quot;&gt;3. Can the PLC Runtime used in Controller be modified with Silistra transformer to be SL3 compliant and used on Controller to avoid hardware certification.&lt;/font&gt;&lt;/div&gt;" style="text;html=1;whiteSpace=wrap;overflow=hidden;rounded=0;" parent="1" vertex="1">
          <mxGeometry x="1300" y="125" width="760" height="575" as="geometry" />
        </mxCell>
      </root>
    </mxGraphModel>
  </diagram>
</mxfile>
